<?xml version="1.0" encoding="UTF-8" standalone="no"?>
<svg
    xmlns:dc="http://purl.org/dc/elements/1.1/"
    xmlns:cc="http://creativecommons.org/ns#"
    xmlns:rdf="http://www.w3.org/1999/02/22-rdf-syntax-ns#"
    xmlns:svg="http://www.w3.org/2000/svg"
    xmlns="http://www.w3.org/2000/svg"
    width="162.51968"
    height="77.480316"
>
    <path
        fill="white"
        d="M 0 0 L 0 37.794922 L 98.267578 37.794922 L 98.267578 0 L 0 0 z M 44.292969 4.3457031 C 46.346303 4.3457031 48.212578 4.7736114 49.892578 5.6269531 C 51.599244 6.4536114 53.053906 7.54625 54.253906 8.90625 C 55.453906 10.26625 56.386069 11.813533 57.052734 13.546875 C 57.719403 15.280217 58.052734 17.039514 58.052734 18.826172 C 58.052734 20.719514 57.707006 22.532308 57.013672 24.265625 C 56.320338 25.972308 55.359478 27.492855 54.132812 28.826172 C 52.906154 30.132855 51.43909 31.186328 49.732422 31.986328 C 48.025756 32.759645 46.173828 33.146484 44.173828 33.146484 C 42.093828 33.146484 40.200806 32.747266 38.494141 31.947266 C 36.814141 31.120607 35.359478 30.040373 34.132812 28.707031 C 32.932819 27.347031 32.000653 25.799723 31.333984 24.066406 C 30.667319 22.333065 30.333984 20.559435 30.333984 18.746094 C 30.333984 16.852777 30.679713 15.039982 31.373047 13.306641 C 32.093047 11.573299 33.066303 10.040348 34.292969 8.7070312 C 35.5463 7.3736902 37.025754 6.3202167 38.732422 5.546875 C 40.439088 4.746875 42.292969 4.3457031 44.292969 4.3457031 z M 6.2148438 4.546875 L 29.855469 4.546875 L 29.855469 9.3867188 L 20.775391 9.3867188 L 20.775391 32.947266 L 15.294922 32.947266 L 15.294922 9.3867188 L 6.2148438 9.3867188 L 6.2148438 4.546875 z M 62.287109 4.546875 L 68.207031 4.546875 L 76.607422 20.707031 L 85.087891 4.546875 L 90.966797 4.546875 L 90.966797 32.947266 L 85.447266 32.947266 L 85.447266 14.146484 L 78.126953 28.146484 L 75.126953 28.146484 L 67.806641 14.146484 L 67.806641 32.947266 L 62.287109 32.947266 L 62.287109 4.546875 z M 44.212891 9.265625 C 42.879559 9.265625 41.692344 9.5454673 40.652344 10.105469 C 39.612344 10.63881 38.746069 11.358967 38.052734 12.265625 C 37.3594 13.145625 36.826457 14.159957 36.453125 15.306641 C 36.106457 16.426641 35.933594 17.572777 35.933594 18.746094 C 35.933594 19.972777 36.120806 21.159982 36.494141 22.306641 C 36.867475 23.453299 37.400418 24.465703 38.09375 25.345703 C 38.81375 26.225703 39.680025 26.933455 40.693359 27.466797 C 41.733359 28.000139 42.906225 28.265625 44.212891 28.265625 C 45.546225 28.265625 46.719088 28.000139 47.732422 27.466797 C 48.772422 26.906797 49.640653 26.172283 50.333984 25.265625 C 51.053984 24.358942 51.586925 23.346563 51.933594 22.226562 C 52.306925 21.079911 52.494141 19.919435 52.494141 18.746094 C 52.494141 17.519435 52.292578 16.332205 51.892578 15.185547 C 51.519246 14.038863 50.973906 13.026484 50.253906 12.146484 C 49.560572 11.266484 48.692344 10.573065 47.652344 10.066406 C 46.63901 9.5330666 45.492891 9.265625 44.212891 9.265625 z M 0 39.685547 L 0 77.480469 L 162.51953 77.480469 L 162.51953 39.685547 L 0 39.685547 z M 18.056641 44.880859 C 20.056641 44.880859 21.896172 45.199844 23.576172 45.839844 C 25.256172 46.453185 26.723236 47.187699 27.976562 48.041016 L 25.535156 52.519531 C 25.348498 52.332823 25.002767 52.07974 24.496094 51.759766 C 24.016094 51.439766 23.415313 51.13316 22.695312 50.839844 C 22.001983 50.519844 21.242681 50.254357 20.416016 50.041016 C 19.589347 49.827598 18.749816 49.720703 17.896484 49.720703 C 16.376484 49.720703 15.242762 50.000547 14.496094 50.560547 C 13.749428 51.120547 13.375 51.90658 13.375 52.919922 C 13.375 53.50658 13.508725 54.000391 13.775391 54.400391 C 14.068725 54.773732 14.482291 55.107049 15.015625 55.400391 C 15.548957 55.693707 16.215625 55.959219 17.015625 56.199219 C 17.842293 56.439093 18.788803 56.694128 19.855469 56.960938 C 21.242135 57.334249 22.495234 57.733473 23.615234 58.160156 C 24.761903 58.586815 25.722762 59.119766 26.496094 59.759766 C 27.296094 60.399766 27.909272 61.17342 28.335938 62.080078 C 28.762601 62.960078 28.976563 64.052692 28.976562 65.359375 C 28.976562 66.879375 28.682371 68.18598 28.095703 69.279297 C 27.535703 70.34598 26.762056 71.214201 25.775391 71.880859 C 24.815391 72.547518 23.696016 73.039375 22.416016 73.359375 C 21.162684 73.652717 19.841746 73.800781 18.455078 73.800781 C 16.321746 73.800781 14.214768 73.479844 12.134766 72.839844 C 10.054766 72.199844 8.1884904 71.294435 6.5351562 70.121094 L 8.9765625 65.359375 C 9.2165625 65.599249 9.6425277 65.920192 10.255859 66.320312 C 10.895859 66.693629 11.64276 67.080469 12.496094 67.480469 C 13.349428 67.85381 14.295937 68.172795 15.335938 68.439453 C 16.375933 68.706137 17.441822 68.839844 18.535156 68.839844 C 21.575156 68.839844 23.095703 67.866605 23.095703 65.919922 C 23.095703 65.306605 22.922838 64.786058 22.576172 64.359375 C 22.229504 63.932717 21.735703 63.560234 21.095703 63.240234 C 20.455703 62.920234 19.682056 62.626033 18.775391 62.359375 C 17.868725 62.092692 16.856328 61.800469 15.736328 61.480469 C 14.376328 61.107152 13.189118 60.70598 12.175781 60.279297 C 11.189115 59.82598 10.361981 59.307387 9.6953125 58.720703 C 9.0286472 58.107387 8.5224471 57.413967 8.1757812 56.640625 C 7.8557817 55.840625 7.6953125 54.894123 7.6953125 53.800781 C 7.6953125 52.360781 7.9627621 51.080933 8.4960938 49.960938 C 9.0294274 48.840937 9.7619813 47.906815 10.695312 47.160156 C 11.655313 46.413498 12.762291 45.85381 14.015625 45.480469 C 15.268959 45.080469 16.616641 44.880859 18.056641 44.880859 z M 119.75977 44.880859 C 122.42643 44.880859 124.70628 45.440547 126.59961 46.560547 C 128.51961 47.680547 129.95992 49.186736 130.91992 51.080078 L 126.80078 54.121094 C 126.08078 52.707752 125.06643 51.627518 123.75977 50.880859 C 122.47977 50.134201 121.08055 49.759766 119.56055 49.759766 C 118.36055 49.759766 117.25357 50.012873 116.24023 50.519531 C 115.25357 51.02619 114.39969 51.719609 113.67969 52.599609 C 112.98636 53.479609 112.44102 54.493942 112.04102 55.640625 C 111.66768 56.787283 111.48047 58.00125 111.48047 59.28125 C 111.48047 60.614592 111.69247 61.867699 112.11914 63.041016 C 112.54581 64.187699 113.13419 65.187699 113.88086 66.041016 C 114.62753 66.894357 115.5062 67.57342 116.51953 68.080078 C 117.55953 68.560078 118.68086 68.800781 119.88086 68.800781 C 122.62753 68.800781 125.10698 67.50658 127.32031 64.919922 L 127.32031 62.919922 L 121.59961 62.919922 L 121.59961 58.880859 L 131.88086 58.880859 L 131.88086 73.480469 L 127.32031 73.480469 L 127.32031 70.28125 C 125.05364 72.547908 122.41372 73.679688 119.40039 73.679688 C 117.53372 73.679688 115.77247 73.307205 114.11914 72.560547 C 112.49247 71.813863 111.06651 70.787127 109.83984 69.480469 C 108.63984 68.17381 107.68094 66.640859 106.96094 64.880859 C 106.26761 63.094176 105.91992 61.17441 105.91992 59.121094 C 105.91992 57.17441 106.26761 55.347283 106.96094 53.640625 C 107.68094 51.907283 108.65419 50.401094 109.88086 49.121094 C 111.13419 47.814435 112.5993 46.787674 114.2793 46.041016 C 115.9593 45.267674 117.78643 44.880859 119.75977 44.880859 z M 40.757812 45.080078 L 45.638672 45.080078 L 56.4375 73.480469 L 50.757812 73.480469 L 48.119141 66.400391 L 38.197266 66.400391 L 35.597656 73.480469 L 29.917969 73.480469 L 40.757812 45.080078 z M 54.251953 45.080078 L 60.050781 45.080078 L 67.730469 66.560547 L 75.332031 45.080078 L 81.130859 45.080078 L 70.050781 73.480469 L 65.412109 73.480469 L 54.251953 45.080078 z M 89.820312 45.080078 L 94.701172 45.080078 L 105.5 73.480469 L 99.820312 73.480469 L 97.181641 66.400391 L 87.259766 66.400391 L 84.660156 73.480469 L 78.980469 73.480469 L 89.820312 45.080078 z M 136.58398 45.080078 L 155.94531 45.080078 L 155.94531 49.919922 L 142.10352 49.919922 L 142.10352 56.759766 L 154.06445 56.759766 L 154.06445 61.240234 L 142.10352 61.240234 L 142.10352 68.640625 L 156.30469 68.640625 L 156.30469 73.480469 L 136.58398 73.480469 L 136.58398 45.080078 z M 43.197266 51.359375 L 39.119141 62.519531 L 47.119141 62.519531 L 43.197266 51.359375 z M 92.259766 51.359375 L 88.181641 62.519531 L 96.181641 62.519531 L 92.259766 51.359375 z "
    />
</svg>
